<svg id="Group_5841" data-name="Group 5841" xmlns="http://www.w3.org/2000/svg" xmlns:xlink="http://www.w3.org/1999/xlink" width="19" height="19.024" viewBox="0 0 19 19.024">
  <defs>
    <clipPath id="clip-path">
      <rect id="Rectangle_1973" data-name="Rectangle 1973" width="19" height="19.024" fill="#07275a"/>
    </clipPath>
  </defs>
  <g id="Group_5841-2" data-name="Group 5841" clip-path="url(#clip-path)">
    <path id="Path_8725" data-name="Path 8725" d="M.341,323.5A.637.637,0,0,1,0,322.847c.013-1.17,0-2.34.005-3.509,0-.423.171-.592.6-.592H4.187c.4,0,.575.178.575.579,0,1.195,0,2.389,0,3.584a.561.561,0,0,1-.373.594Zm3.466-2.369c0-.427,0-.854,0-1.281,0-.123-.039-.157-.158-.156q-1.272.007-2.544,0c-.109,0-.152.028-.152.145q.006,1.281,0,2.562c0,.116.039.147.15.146.848,0,1.7,0,2.544,0,.139,0,.161-.053.16-.174-.006-.415,0-.829,0-1.244" transform="translate(0 -304.478)" fill="#07275a"/>
    <path id="Path_8726" data-name="Path 8726" d="M159.748,323.5a.632.632,0,0,1-.342-.654c.013-1.176,0-2.352.005-3.528,0-.4.176-.575.577-.575h3.6c.4,0,.577.179.577.577,0,1.194,0,2.389,0,3.583a.564.564,0,0,1-.372.6Zm3.464-2.37c0-.421-.006-.842,0-1.263,0-.143-.044-.175-.179-.174q-1.254.009-2.507,0c-.126,0-.172.031-.171.165q.008,1.263,0,2.526c0,.134.047.165.172.164q1.263-.007,2.526,0c.119,0,.161-.031.159-.155-.007-.421,0-.842,0-1.263" transform="translate(-152.27 -304.477)" fill="#07275a"/>
    <path id="Path_8727" data-name="Path 8727" d="M319.155,323.413a.619.619,0,0,1-.343-.633c.012-1.181,0-2.362.005-3.543,0-.41.173-.58.589-.58,1.169,0,2.337.005,3.506,0a.7.7,0,0,1,.63.263v4.237a.871.871,0,0,1-.335.26Zm2.026-.954c.421,0,.842-.006,1.263,0,.139,0,.177-.037.176-.176q-.01-1.254,0-2.508c0-.123-.024-.173-.161-.172q-1.263.009-2.526,0c-.127,0-.171.034-.17.166q.008,1.263,0,2.526c0,.138.053.163.175.162.415-.006.83,0,1.245,0" transform="translate(-304.541 -304.389)" fill="#07275a"/>
    <path id="Path_8728" data-name="Path 8728" d="M129.053,4.847a2.864,2.864,0,1,1,4.125-.008c.136.056.275.1.4.168a2.317,2.317,0,0,1,1.332,2.076c.013.3,0,.594,0,.891,0,.421-.162.583-.585.584H128.11a3.75,3.75,0,0,1-.389-.01.418.418,0,0,1-.394-.381,5.437,5.437,0,0,1,.055-1.59,2.306,2.306,0,0,1,1.552-1.685l.12-.045m.164-2a1.9,1.9,0,1,0,1.9-1.9,1.894,1.894,0,0,0-1.9,1.9M131.1,7.61h2.3c.633,0,.633,0,.551-.649a1.4,1.4,0,0,0-1.387-1.247q-1.457-.013-2.915,0a1.408,1.408,0,0,0-1.344,1.056,3.059,3.059,0,0,0-.052.627c-.009.163.03.22.209.218.879-.01,1.757,0,2.636,0" transform="translate(-121.597 0)" fill="#07275a"/>
    <path id="Path_8729" data-name="Path 8729" d="M46.288,213.927c1.065,0,2.13,0,3.2,0,.15,0,.207-.032.2-.192-.014-.241-.007-.483,0-.724a.477.477,0,1,1,.952-.021c.01.254.011.508,0,.761-.006.141.041.177.178.176.929-.006,1.858,0,2.787,0h3.548c.463,0,.624.162.624.627,0,.409,0,.817,0,1.226a.474.474,0,0,1-.481.521.467.467,0,0,1-.469-.475c-.007-.266-.006-.533,0-.8,0-.105-.016-.152-.139-.152q-2.954.006-5.907,0c-.107,0-.139.034-.137.138.006.248,0,.5,0,.743,0,.336-.189.544-.479.544a.482.482,0,0,1-.476-.545c0-.248,0-.5,0-.743,0-.1-.029-.137-.136-.137q-2.954,0-5.907,0c-.124,0-.142.049-.139.153.006.241,0,.483,0,.724,0,.336-.187.545-.475.547s-.479-.211-.481-.559q0-.622,0-1.245a.5.5,0,0,1,.569-.569c1.059,0,2.118,0,3.177,0" transform="translate(-40.637 -202.99)" fill="#07275a"/>
  </g>
</svg>
