<svg id="Group_2199" data-name="Group 2199" xmlns="http://www.w3.org/2000/svg" xmlns:xlink="http://www.w3.org/1999/xlink" width="16" height="17.851" viewBox="0 0 16 17.851">
  <defs>
    <clipPath id="clip-path">
      <rect id="Rectangle_656" data-name="Rectangle 656" width="16" height="17.851" fill="#07275a"/>
    </clipPath>
  </defs>
  <g id="Group_2198" data-name="Group 2198" clip-path="url(#clip-path)">
    <path id="Path_6453" data-name="Path 6453" d="M2.492,17.851c-.071-.052-.157-.035-.235-.051A2.774,2.774,0,0,1,.007,15.02q-.014-6.091,0-12.182A2.772,2.772,0,0,1,2.252.055,2.906,2.906,0,0,1,2.84,0q4.235,0,8.47,0a2.782,2.782,0,0,1,2.772,2.175,2.876,2.876,0,0,1,.069.691q0,2.056,0,4.113a.7.7,0,0,1-.521.767.684.684,0,0,1-.858-.568,2.131,2.131,0,0,1-.015-.278q0-2,0-4.008a1.415,1.415,0,0,0-1.44-1.5q-4.244,0-8.488,0A1.382,1.382,0,0,0,1.4,2.742c0,.064-.006.128-.006.191q0,6,0,11.991a1.428,1.428,0,0,0,.785,1.385,1.46,1.46,0,0,0,.691.147c.744,0,1.487,0,2.231,0a.667.667,0,0,1,.644.4.679.679,0,0,1-.074.723,1.029,1.029,0,0,1-.392.273Z" transform="translate(0 0)" fill="#07275a"/>
    <path id="Path_6454" data-name="Path 6454" d="M173.825,225.458a.348.348,0,0,0-.055-.035.692.692,0,0,1-.449-.88c.267-.907.546-1.81.822-2.714a.874.874,0,0,1,.234-.361c1.251-1.247,2.5-2.5,3.752-3.74a2.089,2.089,0,0,1,3.093,2.8c-.089.107-.189.2-.288.3q-1.769,1.767-3.539,3.534a1.227,1.227,0,0,1-.563.326c-.911.249-1.82.507-2.729.762Zm1.19-1.707,1.333-.369a.32.32,0,0,0,.147-.086q1.208-1.208,2.419-2.413c.071-.071.069-.11,0-.178-.263-.255-.524-.512-.776-.777-.091-.095-.141-.107-.242-.006-.785.792-1.577,1.578-2.367,2.366a.352.352,0,0,0-.1.119c-.138.435-.271.872-.415,1.343m5.3-4.521a.706.706,0,0,0-.47-.706.746.746,0,0,0-.8.247c-.049.065-.013.091.023.128.279.279.558.558.836.838.046.047.079.071.139.012a.734.734,0,0,0,.27-.519" transform="translate(-165.719 -207.607)" fill="#07275a"/>
    <path id="Path_6455" data-name="Path 6455" d="M68.231,95.808c1.185,0,2.37,0,3.555,0a.692.692,0,0,1,.683.94.671.671,0,0,1-.607.45c-.086.008-.174,0-.261,0H64.717a.7.7,0,0,1-.77-.729.691.691,0,0,1,.729-.664c.929,0,1.859,0,2.788,0h.767" transform="translate(-61.154 -91.624)" fill="#07275a"/>
    <path id="Path_6456" data-name="Path 6456" d="M68.262,161.1q-1.769,0-3.537,0a.7.7,0,0,1-.123-1.388,1.4,1.4,0,0,1,.157-.005h7.023a.7.7,0,0,1,.769.714.691.691,0,0,1-.715.679c-.505.005-1.011,0-1.516,0H68.262" transform="translate(-61.19 -152.727)" fill="#07275a"/>
    <path id="Path_6457" data-name="Path 6457" d="M66.843,224.946c-.714,0-1.428,0-2.141,0a.7.7,0,1,1-.012-1.392c.859-.005,1.718,0,2.577,0,.586,0,1.172,0,1.758,0a.695.695,0,0,1,.282,1.331.86.86,0,0,1-.357.062H66.843" transform="translate(-61.18 -213.789)" fill="#07275a"/>
  </g>
</svg>
