<svg id="Group_2197" data-name="Group 2197" xmlns="http://www.w3.org/2000/svg" xmlns:xlink="http://www.w3.org/1999/xlink" width="16" height="18.194" viewBox="0 0 16 18.194">
  <defs>
    <clipPath id="clip-path">
      <rect id="Rectangle_655" data-name="Rectangle 655" width="16" height="18.194" fill="#07275a"/>
    </clipPath>
  </defs>
  <g id="Group_2196" data-name="Group 2196" clip-path="url(#clip-path)">
    <path id="Path_6448" data-name="Path 6448" d="M15.6,18.194H.4a.685.685,0,0,1-.4-.715Q.01,9.1,0,.715A.685.685,0,0,1,.4,0H15.6a.686.686,0,0,1,.4.715Q15.99,9.1,16,17.478a.687.687,0,0,1-.4.715M14.929,10.2q0-3.384,0-6.768c0-.166-.047-.2-.2-.2Q8,3.237,1.263,3.23c-.151,0-.2.029-.2.191q.008,6.759,0,13.519c0,.161.044.191.2.191q6.733-.006,13.466,0c.157,0,.206-.032.205-.2q-.009-3.366,0-6.733M8,2.168h2.522c1.409,0,2.818,0,4.227,0,.152,0,.189-.043.182-.187a5.837,5.837,0,0,1,0-.71c.012-.173-.04-.212-.212-.212Q8,1.07,1.276,1.066a.654.654,0,0,1-.089,0c-.1-.013-.119.032-.118.122,0,.26.012.522,0,.781-.009.163.04.2.2.2q3.366-.008,6.732,0" transform="translate(0)" fill="#07275a"/>
    <path id="Path_6449" data-name="Path 6449" d="M65.985,121h5.221c.449,0,.644.2.644.652q0,.985,0,1.971a.546.546,0,0,1-.614.611H60.741a.546.546,0,0,1-.617-.607q0-1.012,0-2.024a.542.542,0,0,1,.6-.6h5.256m-.017,2.168c1.551,0,3.1,0,4.653,0,.133,0,.173-.033.166-.166a6.689,6.689,0,0,1,0-.728c.01-.167-.032-.215-.209-.215q-4.591.009-9.182,0a.677.677,0,0,1-.089,0c-.093-.012-.123.026-.121.119.006.26.011.521,0,.781-.008.157.031.207.2.206,1.527-.007,3.055,0,4.582,0" transform="translate(-57.987 -116.698)" fill="#07275a"/>
    <path id="Path_6450" data-name="Path 6450" d="M66.529,245.742q0,1.545,0,3.09a.552.552,0,0,1-.632.628H60.765a.551.551,0,0,1-.632-.628q0-3.107,0-6.215a.548.548,0,0,1,.623-.619h5.149a.548.548,0,0,1,.623.619q0,1.563,0,3.125m-1.066-.008c0-.835,0-1.669,0-2.5,0-.128-.026-.17-.163-.169q-1.971.009-3.943,0c-.136,0-.164.039-.164.168q.007,2.5,0,5.008c0,.12.026.16.154.16q1.98-.007,3.96,0c.127,0,.156-.037.155-.159-.005-.835,0-1.669,0-2.5" transform="translate(-57.996 -233.398)" fill="#07275a"/>
    <path id="Path_6451" data-name="Path 6451" d="M272.256,241.984c.509,0,1.017,0,1.526,0a.538.538,0,0,1,.587.583q0,1.02,0,2.041a.535.535,0,0,1-.579.573q-1.553,0-3.106,0a.535.535,0,0,1-.578-.574q0-1.029,0-2.059a.533.533,0,0,1,.57-.564c.527,0,1.053,0,1.579,0m0,1.066c-.314,0-.627.005-.94,0-.119,0-.15.035-.146.149.008.266.006.532,0,.8,0,.09.022.124.118.123q.949-.006,1.9,0c.1,0,.121-.031.119-.122-.005-.272-.008-.544,0-.816,0-.12-.047-.133-.146-.132-.3,0-.6,0-.9,0" transform="translate(-260.507 -233.385)" fill="#07275a"/>
    <path id="Path_6452" data-name="Path 6452" d="M272.262,361.989c.509,0,1.017,0,1.526,0a.538.538,0,0,1,.586.584q0,1.02,0,2.041a.535.535,0,0,1-.58.573q-1.553,0-3.106,0a.535.535,0,0,1-.577-.575q0-1.02,0-2.041a.538.538,0,0,1,.589-.581c.521,0,1.041,0,1.562,0m-.023,2.132c.313,0,.627,0,.94,0,.1,0,.135-.022.132-.127q-.01-.408,0-.816c0-.1-.035-.127-.132-.127q-.94.006-1.881,0c-.089,0-.125.021-.123.118q.009.417,0,.834c0,.1.034.119.123.118.313,0,.627,0,.94,0" transform="translate(-260.512 -349.126)" fill="#07275a"/>
  </g>
</svg>
