<svg xmlns="http://www.w3.org/2000/svg" xmlns:xlink="http://www.w3.org/1999/xlink" width="18" height="18.001" viewBox="0 0 18 18.001">
  <defs>
    <filter id="Rectangle_1908" x="-3" y="-2" width="24" height="24.001" filterUnits="userSpaceOnUse">
      <feOffset dy="1" input="SourceAlpha"/>
      <feGaussianBlur stdDeviation="1" result="blur"/>
      <feFlood flood-opacity="0.161"/>
      <feComposite operator="in" in2="blur"/>
      <feComposite in="SourceGraphic"/>
    </filter>
    <clipPath id="clip-path">
      <g transform="matrix(1, 0, 0, 1, 0, 0)" filter="url(#Rectangle_1908)">
        <rect id="Rectangle_1908-2" data-name="Rectangle 1908" width="18" height="18.001" fill="#000"/>
      </g>
    </clipPath>
  </defs>
  <g id="Group_5332" data-name="Group 5332" clip-path="url(#clip-path)">
    <path id="Path_8654" data-name="Path 8654" d="M0,9.563V8.439c.031-.237.058-.475.093-.712A.514.514,0,0,1,.5,7.275c.248-.067.5-.138.746-.2a.189.189,0,0,0,.163-.153A7.394,7.394,0,0,1,2.169,5.1a.177.177,0,0,0,0-.208c-.131-.215-.252-.436-.382-.651a.551.551,0,0,1,.046-.682A9.323,9.323,0,0,1,3.568,1.825a.546.546,0,0,1,.668-.042c.211.126.427.244.636.372a.2.2,0,0,0,.238.009A7.252,7.252,0,0,1,6.9,1.417a.213.213,0,0,0,.179-.181c.056-.245.128-.486.192-.73A.514.514,0,0,1,7.721.094a8.725,8.725,0,0,1,2.556,0,.514.514,0,0,1,.45.411c.068.254.139.508.2.763a.165.165,0,0,0,.134.139A7.4,7.4,0,0,1,12.9,2.17a.177.177,0,0,0,.208,0c.215-.131.435-.252.651-.382a.545.545,0,0,1,.668.038A9.2,9.2,0,0,1,16.177,3.57a.546.546,0,0,1,.039.668c-.129.216-.251.436-.382.651a.177.177,0,0,0,0,.207,7.433,7.433,0,0,1,.759,1.825.188.188,0,0,0,.161.155c.245.057.486.128.73.191a.533.533,0,0,1,.431.473,8.92,8.92,0,0,1,0,2.522.531.531,0,0,1-.433.471c-.244.062-.485.135-.73.192a.188.188,0,0,0-.159.157,7.367,7.367,0,0,1-.752,1.809.2.2,0,0,0,.009.238c.128.21.246.425.372.636a.547.547,0,0,1-.042.668,9.218,9.218,0,0,1-1.747,1.746.54.54,0,0,1-.653.044c-.217-.127-.437-.249-.651-.383a.2.2,0,0,0-.238,0,7.422,7.422,0,0,1-1.81.749.187.187,0,0,0-.153.163c-.051.222-.113.442-.172.662a.585.585,0,0,1-.6.513,3.883,3.883,0,0,0-.59.071H8.437c-.237-.031-.474-.058-.71-.092a.515.515,0,0,1-.453-.407c-.067-.248-.139-.5-.2-.746a.2.2,0,0,0-.169-.169,7.4,7.4,0,0,1-1.792-.745.211.211,0,0,0-.253.008c-.213.133-.433.256-.651.381a.535.535,0,0,1-.638-.048,9.231,9.231,0,0,1-1.758-1.757.538.538,0,0,1-.04-.653c.128-.216.25-.436.382-.651a.189.189,0,0,0,.008-.223,7.333,7.333,0,0,1-.758-1.824.188.188,0,0,0-.164-.152c-.222-.052-.441-.115-.661-.174a.581.581,0,0,1-.514-.6A3.927,3.927,0,0,0,0,9.563M14.612,9A5.612,5.612,0,1,0,9,14.614,5.626,5.626,0,0,0,14.612,9" transform="translate(0 0)" fill="#000"/>
    <path id="Path_8655" data-name="Path 8655" d="M94.586,99.161a4.558,4.558,0,1,1,4.55,4.557,4.571,4.571,0,0,1-4.55-4.557m3.995,2.217a.532.532,0,0,0,.391-.17c.117-.115.232-.231.348-.347q1.2-1.2,2.41-2.409a.543.543,0,0,0,.168-.588.525.525,0,0,0-.907-.166q-1.151,1.146-2.3,2.3c-.092.093-.14.1-.232,0-.3-.313-.607-.618-.918-.919a.521.521,0,0,0-.755,0,.526.526,0,0,0,.01.744c.46.467.926.929,1.39,1.392a.522.522,0,0,0,.392.168" transform="translate(-90.144 -90.159)" fill="#000"/>
  </g>
</svg>
