<svg id="Group_2193" data-name="Group 2193" xmlns="http://www.w3.org/2000/svg" xmlns:xlink="http://www.w3.org/1999/xlink" width="16" height="17.457" viewBox="0 0 16 17.457">
  <defs>
    <clipPath id="clip-path">
      <rect id="Rectangle_653" data-name="Rectangle 653" width="16" height="17.457" fill="#07275a"/>
    </clipPath>
  </defs>
  <g id="Group_2192" data-name="Group 2192" clip-path="url(#clip-path)">
    <path id="Path_6438" data-name="Path 6438" d="M28.376,17.457c-.126-.028-.255-.051-.379-.086a2.7,2.7,0,0,1-1.964-1.96c-.033-.113-.077-.138-.184-.138q-1.577.005-3.154,0A1.26,1.26,0,0,1,21.4,14.1a1.208,1.208,0,0,1,.436-1.061,5.023,5.023,0,0,0,1.2-1.511,4.962,4.962,0,0,0,.538-2.3c0-.778-.046-1.559.022-2.334a4.991,4.991,0,0,1,2.665-4.1,4.627,4.627,0,0,1,1.7-.557c.136-.018.162-.07.16-.193-.006-.455.01-.91-.007-1.364A.622.622,0,0,1,28.546,0h.273a.686.686,0,0,1,.4.729c-.017.425.006.852-.009,1.278-.006.171.054.211.21.237a5.015,5.015,0,0,1,3.916,3.008,4.648,4.648,0,0,1,.419,1.916c.008.7,0,1.4,0,2.1a4.8,4.8,0,0,0,1.652,3.691,1.3,1.3,0,0,1,.457,1.46,1.254,1.254,0,0,1-1.209.858c-1.057,0-2.113,0-3.17,0-.091,0-.15,0-.182.117a2.68,2.68,0,0,1-2.263,2.038.248.248,0,0,0-.059.028Zm.283-3.273h5.914c.113,0,.223,0,.269-.128s-.045-.188-.122-.257a5.938,5.938,0,0,1-2.048-4.629c0-.619,0-1.239,0-1.858a3.912,3.912,0,0,0-.087-.863,4,4,0,0,0-7.9.479c-.052.766-.02,1.533-.02,2.3a5.98,5.98,0,0,1-2.079,4.6c-.073.064-.127.132-.086.236a.2.2,0,0,0,.222.118c.04,0,.08,0,.119,0h5.812m.007,1.091c-.465,0-.931,0-1.4,0-.111,0-.144.021-.089.131a1.64,1.64,0,0,0,2.979,0c.064-.128.01-.136-.1-.135-.465,0-.931,0-1.4,0" transform="translate(-20.669)" fill="#07275a"/>
    <path id="Path_6439" data-name="Path 6439" d="M369.164,30.049c0,.112,0,.22,0,.328a.533.533,0,0,1-.492.517.519.519,0,0,1-.577-.439c-.038-.286-.03-.578-.058-.865a7.686,7.686,0,0,0-2.026-4.531c-.057-.063-.118-.123-.176-.185a.551.551,0,1,1,.781-.764,8.865,8.865,0,0,1,2.549,5.94" transform="translate(-353.165 -23.079)" fill="#07275a"/>
    <path id="Path_6440" data-name="Path 6440" d="M0,30.051a8.811,8.811,0,0,1,2.559-5.937.553.553,0,0,1,.815-.06.546.546,0,0,1-.029.816,7.761,7.761,0,0,0-2.028,3.624,8.035,8.035,0,0,0-.226,1.855.551.551,0,0,1-.41.541.56.56,0,0,1-.612-.266A1.174,1.174,0,0,1,0,30.051" transform="translate(0 -23.087)" fill="#07275a"/>
  </g>
</svg>
