<svg id="Group_5320" data-name="Group 5320" xmlns="http://www.w3.org/2000/svg" xmlns:xlink="http://www.w3.org/1999/xlink" width="16" height="16" viewBox="0 0 16 16">
  <defs>
    <clipPath id="clip-path">
      <rect id="Rectangle_648" data-name="Rectangle 648" width="16" height="16" fill="#07275a"/>
    </clipPath>
  </defs>
  <g id="Mask_Group_2188" data-name="Mask Group 2188" clip-path="url(#clip-path)">
    <path id="Path_6432" data-name="Path 6432" d="M5.926,0a2.11,2.11,0,0,1,.991.493,1.838,1.838,0,0,1,.606,1.372q0,2.506,0,5.012A1.874,1.874,0,0,1,5.644,8.751q-1.874,0-3.747,0A1.874,1.874,0,0,1,.017,6.862q0-2.475,0-4.95A1.882,1.882,0,0,1,1.528.028.909.909,0,0,0,1.615,0ZM1.276,4.358q0,1.226,0,2.451a.627.627,0,0,0,.679.683q1.811,0,3.622,0A.63.63,0,0,0,6.264,6.8q0-2.428,0-4.856a.629.629,0,0,0-.687-.69H1.971a.631.631,0,0,0-.694.7q0,1.2,0,2.4" transform="translate(-0.015)" fill="#07275a"/>
    <path id="Path_6433" data-name="Path 6433" d="M211.11,180.673a2.125,2.125,0,0,1-.482.98,1.836,1.836,0,0,1-1.383.617q-1.881.005-3.763,0a1.874,1.874,0,0,1-1.873-1.879q0-2.5,0-5a1.873,1.873,0,0,1,1.873-1.879q1.858,0,3.716,0a1.88,1.88,0,0,1,1.883,1.512.9.9,0,0,0,.029.086Zm-6.242-2.776q0,1.21,0,2.42a.632.632,0,0,0,.7.695h3.591a.632.632,0,0,0,.7-.7q0-2.42,0-4.84a.634.634,0,0,0-.706-.7h-3.575a.634.634,0,0,0-.706.7q0,1.21,0,2.42" transform="translate(-195.11 -166.273)" fill="#07275a"/>
    <path id="Path_6434" data-name="Path 6434" d="M211.108,4.653a2.12,2.12,0,0,1-.492.991,1.835,1.835,0,0,1-1.371.606q-1.888.005-3.777,0a1.875,1.875,0,0,1-1.86-1.859c0-.827,0-1.654,0-2.481A1.882,1.882,0,0,1,205.117.028.9.9,0,0,0,205.2,0h4.311a.837.837,0,0,0,.087.029,1.9,1.9,0,0,1,1.162.755,2.364,2.364,0,0,1,.344.81Zm-3.74-3.4c-.609,0-1.218,0-1.826,0a.625.625,0,0,0-.675.67q0,1.194,0,2.388a.627.627,0,0,0,.682.679h3.622a.628.628,0,0,0,.683-.678q0-1.186,0-2.373a.63.63,0,0,0-.69-.687h-1.8" transform="translate(-195.108 0.001)" fill="#07275a"/>
    <path id="Path_6435" data-name="Path 6435" d="M3.755,233.407c.62,0,1.239,0,1.859,0A1.875,1.875,0,0,1,7.508,235.3q0,1.242,0,2.483a1.875,1.875,0,0,1-1.887,1.882q-1.866,0-3.733,0A1.876,1.876,0,0,1,0,237.781q0-1.249,0-2.5a1.876,1.876,0,0,1,1.879-1.874c.625,0,1.249,0,1.874,0m0,5c.6,0,1.207,0,1.811,0a.628.628,0,0,0,.679-.682q0-1.186,0-2.373a.627.627,0,0,0-.679-.682H1.948a.629.629,0,0,0-.687.69q0,1.179,0,2.357a.63.63,0,0,0,.686.691H3.759" transform="translate(0 -223.666)" fill="#07275a"/>
  </g>
</svg>
