<svg id="Group_2201" data-name="Group 2201" xmlns="http://www.w3.org/2000/svg" xmlns:xlink="http://www.w3.org/1999/xlink" width="16" height="20.175" viewBox="0 0 16 20.175">
  <defs>
    <clipPath id="clip-path">
      <rect id="Rectangle_657" data-name="Rectangle 657" width="16" height="20.175" fill="#07275a"/>
    </clipPath>
  </defs>
  <g id="Group_2200" data-name="Group 2200" clip-path="url(#clip-path)">
    <path id="Path_6458" data-name="Path 6458" d="M14.461,20.175H1.536a.242.242,0,0,0-.052-.027A1.771,1.771,0,0,1,0,18.277Q0,10.615,0,2.953A1.775,1.775,0,0,1,1.848,1.105c.657,0,1.313,0,1.97,0a.354.354,0,0,0,.29-.121A3.139,3.139,0,0,1,5.689.08,1.115,1.115,0,0,0,6.028,0h3.94c.016.01.031.027.048.029a3.124,3.124,0,0,1,1.914,1,.269.269,0,0,0,.229.077c.67,0,1.339,0,2.009,0a1.87,1.87,0,0,1,.619.095A1.783,1.783,0,0,1,16,2.973q0,5.84,0,11.68c0,1.247,0,2.495,0,3.742a1.764,1.764,0,0,1-1.31,1.716l-.225.064m-1.8-17.884a4.283,4.283,0,0,1,.12.828.592.592,0,0,1-.646.668q-4.137,0-8.273,0A.6.6,0,0,1,3.215,3.1a4.686,4.686,0,0,1,.117-.812H1.922c-.528,0-.741.212-.741.737q0,7.613,0,15.227c0,.526.213.739.739.739H14.055c.555,0,.761-.2.761-.757q0-7.594,0-15.187c0-.066,0-.132,0-.2a.578.578,0,0,0-.541-.555c-.531-.015-1.062,0-1.61,0m-1.172.3a.362.362,0,0,0-.054-.193A1.939,1.939,0,0,0,9.631,1.19c-1.089-.024-2.179-.006-3.268-.006a1.732,1.732,0,0,0-.542.087A2.014,2.014,0,0,0,4.486,2.6Z" transform="translate(0.001)" fill="#07275a"/>
    <path id="Path_6459" data-name="Path 6459" d="M78.328,108.526c-.113-.022-.177-.028-.238-.046a.6.6,0,0,1-.418-.618.576.576,0,0,1,.543-.532c.531-.017,1.064-.019,1.594,0a.567.567,0,0,1,.539.614c0,.473,0,.945,0,1.418a.592.592,0,1,1-1.181.086c0-.019-.007-.038-.01-.061-.081.014-.116.084-.165.132q-.8.792-1.587,1.588a.6.6,0,0,1-.974-.006c-.515-.515-1.037-1.025-1.54-1.551-.149-.155-.223-.133-.359.008-.5.515-1,1.02-1.515,1.521a.586.586,0,0,1-1-.256.553.553,0,0,1,.151-.561q1.061-1.07,2.129-2.132a.576.576,0,0,1,.86.024q.825.818,1.641,1.646c.094.1.145.106.244,0,.413-.422.836-.834,1.286-1.28" transform="translate(-68.213 -101.677)" fill="#07275a"/>
    <path id="Path_6460" data-name="Path 6460" d="M136.506,232.973c.781,0,1.561-.006,2.342,0a.582.582,0,0,1,.54.864.624.624,0,0,1-.609.319q-1.869,0-3.739,0c-.282,0-.564,0-.846,0a.612.612,0,0,1-.682-.6.6.6,0,0,1,.672-.584c.774,0,1.548,0,2.322,0" transform="translate(-126.497 -220.731)" fill="#07275a"/>
    <path id="Path_6461" data-name="Path 6461" d="M136.5,297.651h2.3a.594.594,0,0,1,.66.595.6.6,0,0,1-.654.586q-2.322,0-4.645,0a.6.6,0,0,1-.65-.59.59.59,0,0,1,.644-.591q1.171,0,2.342,0" transform="translate(-126.5 -282.012)" fill="#07275a"/>
    <path id="Path_6462" data-name="Path 6462" d="M60.117,221.248a.659.659,0,0,1-.2.453c-.413.412-.822.829-1.238,1.238a.588.588,0,0,1-.889,0q-.3-.288-.584-.585a.592.592,0,1,1,.833-.84.822.822,0,0,1,.1.1c.072.1.128.072.2,0,.251-.259.5-.516.765-.765a.567.567,0,0,1,.653-.124.587.587,0,0,1,.356.529" transform="translate(-54.022 -209.072)" fill="#07275a"/>
    <path id="Path_6463" data-name="Path 6463" d="M58.228,287.813a.584.584,0,0,1-.423-.179c-.205-.2-.411-.4-.611-.613a.591.591,0,1,1,.839-.833.683.683,0,0,1,.083.084c.077.1.141.1.232,0,.229-.243.469-.476.707-.712a.595.595,0,1,1,.835.838c-.4.405-.806.807-1.209,1.211a.609.609,0,0,1-.454.2" transform="translate(-54.016 -270.353)" fill="#07275a"/>
  </g>
</svg>
