<svg xmlns="http://www.w3.org/2000/svg" xmlns:xlink="http://www.w3.org/1999/xlink" width="110" height="45.957" viewBox="0 0 110 45.957">
  <defs>
    <clipPath id="clip-path">
      <rect id="Rectangle_7" data-name="Rectangle 7" width="110" height="45.957" fill="none"/>
    </clipPath>
  </defs>
  <g id="Group_6" data-name="Group 6" clip-path="url(#clip-path)">
    <path id="Path_461" data-name="Path 461" d="M3.624,35.689c-.227-.12-.187-.358-.243-.554a4.974,4.974,0,0,1,.582-4.889,4.249,4.249,0,0,0,1.911-1.794A2.96,2.96,0,0,1,7.4,27.4c1.072-.211,1.761-1.065,2.646-1.59a2.646,2.646,0,0,1,2.18-.451,7.4,7.4,0,0,1,1.891,1.305c1.157.984,1.169,1.105-.02,2.178a.929.929,0,0,1-.3.11c-.408.01-.806.041-.954.529-.49.746-1.408.928-2,1.535-.193.167-.38.341-.586.493a1.987,1.987,0,0,0-.817.811c-.048.092-.1.178-.156.266a1.5,1.5,0,0,0,.345,1.973,3.489,3.489,0,0,1,.623.823c.057.09.108.184.157.278.31.613,1.209.441,1.476,1.108.021.2-.133.545.333.365a1.173,1.173,0,0,1,.644.037,1.585,1.585,0,0,1,1.1.567c.094.436.422.542.806.566a27.036,27.036,0,0,1,2.778,1.492c.1.037.194.078.29.117,1.011.339,1.672-.338,2.4-.829a2.812,2.812,0,0,1,.264-.181,8.6,8.6,0,0,1,1.932-1.072c.348-.007.643-.1.748-.485.227-.418.7-.526,1.027-.812a1.933,1.933,0,0,1,.256-.159,2.112,2.112,0,0,1,.732-.215A2.971,2.971,0,0,0,26.952,34.9c.255-1.122.611-2.254-.419-3.206-.082-.07-.158-.145-.234-.219-2.144-1.647-4.477-3.012-6.71-4.525a2.705,2.705,0,0,1-.272-.18c-1.166-1.019-2.587-1.66-3.821-2.578a3.852,3.852,0,0,1-1.054-.883c-.352-.73-1.1-.967-1.708-1.386a1.275,1.275,0,0,0-1.039-.48,4.153,4.153,0,0,1-1.648-1.14A14.5,14.5,0,0,0,7.1,18.215a10.405,10.405,0,0,0-1.5-.893,1.27,1.27,0,0,1-.245-.212,13.321,13.321,0,0,1-.981-1.3c-.736-1.591-.627-3.356-1.042-5.015a1.245,1.245,0,0,1,.575-1.128l0-.008a1.21,1.21,0,0,1,.79-.875A1.248,1.248,0,0,0,5.509,8c1.653-1.389,3.712-2.165,5.36-3.562.2-.183.5-.212.664-.444l3.321-1.848a.521.521,0,0,0,.439-.073c2.2-1.319,4.338-.947,6.445.253.469.267.976.46,1.458.7q.153.091.3.189l1.595.8a1.941,1.941,0,0,1,1.178.768l.682.41a.417.417,0,0,1,.208.206c.268.523.806.6,1.283.778a.964.964,0,0,1,.633.459c.251.2.607.285.7.654a.912.912,0,0,0,.761.332.555.555,0,0,1,.413.388l0-.006a3.5,3.5,0,0,1,1.551,1.522c.039.657.527,1.122.737,1.707a1.851,1.851,0,0,1,.1.327,7.557,7.557,0,0,1-.026,1.932c-.033.652-.609,1.1-.658,1.744a1.182,1.182,0,0,1-.562.792,2.341,2.341,0,0,0-.909.785,1.351,1.351,0,0,1-.206.214,2.207,2.207,0,0,0-.783.827,1.076,1.076,0,0,1-.433.383h0a2.545,2.545,0,0,1-1.476,1.168c-.33.078-.68.126-.782.541-1.865,1.7-2.516,1.694-4.324-.041-.165-.311-.355-.592-.766-.586a1.876,1.876,0,0,1-1.127-.867c-.031-.655.5-.812.931-1.053a1.97,1.97,0,0,0,1.375-.905.909.909,0,0,1,.531-.322,2.508,2.508,0,0,0,1.819-.989,1.536,1.536,0,0,1,.486-.364A.83.83,0,0,0,27,14.066c.464-2.176.3-2.6-1.464-3.833A9.915,9.915,0,0,1,23.66,8.85c-.3-1.267-1.3-1.374-2.34-1.407a3.356,3.356,0,0,1-1.707-1.236c-1.177-1.018-1.911-.971-2.887.187a1.474,1.474,0,0,1-.183.265,10.526,10.526,0,0,1-2.3,1.438c-.433.073-.918.023-1.174.507-.175.534-.668.745-1.059,1.061a2.721,2.721,0,0,1-.256.175,8.145,8.145,0,0,0-1.391,1,2.54,2.54,0,0,1-.255.193c-1.358,1.1-1.39,2.144-.07,3.229a16.565,16.565,0,0,0,1.554,1.218c.174.12.352.234.527.354a3.156,3.156,0,0,1,.648.7,15.678,15.678,0,0,0,4.286,2.779,2.571,2.571,0,0,1,1.456.95.929.929,0,0,0,.83.588.718.718,0,0,1,.507.346c.228.641.823.7,1.356.85a1.514,1.514,0,0,1,.788.517,1.668,1.668,0,0,0,1.173.848,1.563,1.563,0,0,1,.935.571c.221.453.488.839,1.085.737a8.821,8.821,0,0,1,2.955,2.042l1.639,1.125c.225.187.586.2.69.543a.125.125,0,0,0,.067.149,2.177,2.177,0,0,1,1.357,1.2.309.309,0,0,0,.053.208,2.414,2.414,0,0,1,1.21,1.549c-.108.341.2.688-.012,1.027.067.781.706,1.581-.073,2.336l-.259.89a2.924,2.924,0,0,1-1.825,1.933,3.2,3.2,0,0,0-1,.838c-.06.4-.447.368-.685.533l.012-.008c-.356.242-.584.684-1.084.7a.815.815,0,0,0-.976.34c-.585.5-1.4.69-1.872,1.348L24.31,42.2a4.326,4.326,0,0,0-1.652.947,2.392,2.392,0,0,0-1.183.992,1.322,1.322,0,0,1-.556.351c-.326.086-.648.186-.979.255-2.061.478-3.794-.555-5.608-1.217a1.283,1.283,0,0,1-.288-.151,3.306,3.306,0,0,0-1.851-1.05,1.974,1.974,0,0,1-1.323-.862,12.609,12.609,0,0,0-2.367-1.4c-.215-.222-.592-.141-.779-.415a1.9,1.9,0,0,0-1.195-.806,1.89,1.89,0,0,1-.972-.8c-.474-.812-1.18-1.45-1.683-2.237-.085-.036-.168-.077-.251-.119" transform="translate(-2.284 -0.951)" fill="#25885c"/>
    <path id="Path_462" data-name="Path 462" d="M329.662,74.485a3.724,3.724,0,0,1-4.075,1.832,4.214,4.214,0,0,1-3.628-3.2c-1.469-4.85,1.768-8.789,6.79-8.223.873.1,1.2-.015,1.1-.945a9.1,9.1,0,0,0-.046-2.083c-.294-.781-1.275-.02-1.826-.475.218-.25.5-.133.77-.144-.434,0-.707-.177-.674-.651a.594.594,0,0,1,.585-.612,17.907,17.907,0,0,1,2.683,0c.56.045.618.49.641.947.047.938-.1,1.867-.11,2.8-.044,3.353.042,6.707-.047,10.06a.438.438,0,0,0,.179.4.985.985,0,0,0,.775.176c.719-.106.812.274.818.886.007.642-.149.938-.843.87a6.821,6.821,0,0,0-1.631,0c-1.214.177-1.515-.346-1.2-1.425.047-.235.075-.447-.263-.219" transform="translate(-246.28 -45.898)" fill="#2a2828"/>
    <path id="Path_463" data-name="Path 463" d="M174.912,75.272a2.9,2.9,0,0,0-1.9-1.379c-1.108-.33-2.23-.618-3.334-.961a3.507,3.507,0,0,1-2.162-1.428,6.623,6.623,0,0,1-.015-4.685,4.5,4.5,0,0,1,3.749-1.877c.781.026,1.561.041,2.342-.005a11.882,11.882,0,0,1,1.365.129c1.975.411,2.506,1.584,1.675,3.647a2.98,2.98,0,0,0-1.871-.028c-.532-.513.205-1.382-.515-1.842a3.4,3.4,0,0,0-3.461-.025l-1.365,1.022c-.814.652-.607,1.3,0,1.958a6.015,6.015,0,0,0,3.6,1.457,7.561,7.561,0,0,1,3.8,2.084c.79.738.786,2.893.057,4.294a4.817,4.817,0,0,0-1.157,1.377,5.446,5.446,0,0,1-3.555,1.173,18.941,18.941,0,0,1-4.611-.493c-.686-.132-1.013-.444-.9-1.18a7.678,7.678,0,0,0,.009-1.164c0-1.517.526-1.906,1.994-1.547.6.147.443.6.392.924-.154.965.3,1.326,1.177,1.452a9.45,9.45,0,0,0,2.2.111,2.829,2.829,0,0,0,2.542-1.9.9.9,0,0,0-.055-1.116" transform="translate(-127.605 -49.727)" fill="#292828"/>
    <path id="Path_464" data-name="Path 464" d="M383.519,89.778c1.872.834,3.7.5,5.784-.34-.362.9.486,2.056-1.11,2.2a.369.369,0,0,0-.319-.092,10.066,10.066,0,0,1-6.341-.413,1,1,0,0,1-.824-.618l-.7-.971a1.9,1.9,0,0,1-.536-1.889,11.537,11.537,0,0,0,.085-2.558,3.655,3.655,0,0,1,.926-2.346,1.544,1.544,0,0,0,.86-.968,5.224,5.224,0,0,1,5.76-.685,5.37,5.37,0,0,1,2.733,5.035c-.026.7-.41.6-.833.6-2.093,0-4.186.011-6.278-.005-.511,0-.943,0-.827.7-.127,1.032.4,1.8,1.623,2.349" transform="translate(-290.569 -61.673)" fill="#292828"/>
    <path id="Path_465" data-name="Path 465" d="M439.674,89.845a1.761,1.761,0,0,1-1.138,1.387c-1.05.381-2.179.39-3.249.682a1.989,1.989,0,0,1-.813.023c-.85-.127-1.624-.668-2.565-.383a.588.588,0,0,1-.729-.573c0-.078,0-.153,0-.229,0-1.834,0-1.834,1.737-2.029.449.393-.2,1.291.723,1.493a4.534,4.534,0,0,0,3.385-.139,1.263,1.263,0,0,0,.624-1.282,1.064,1.064,0,0,0-.795-1.033c-.779-.215-1.583-.34-2.373-.52-1.2-.273-2.456-.427-3.216-1.591a3.59,3.59,0,0,0-.429-1.416,2.87,2.87,0,0,1,2.055-3.137,8.945,8.945,0,0,1,5.942.12c.77.237.45.9.476,1.391.081,1.47-.252,1.733-1.65,1.449-.255-.052-.474-.108-.436-.409.1-.8-.283-1.168-1.034-1.2-1-.038-2.073-.279-2.818.651-.567.708-.154,1.536.9,1.8,1.092.27,2.214.417,3.306.69,1.985.5,2.721,1.851,2.172,3.883-.264-.156-.1-.426-.184-.686.05.387-.057.734.1,1.058" transform="translate(-329.93 -61.753)" fill="#292828"/>
    <path id="Path_466" data-name="Path 466" d="M224.2,77.017v3.75c-.173.186-.1.418-.111.633a.361.361,0,0,0,.034.264.236.236,0,0,1,.121-.267c.377,1.249,1.266,1.411,2.389,1.179.317-.065.863-.529.958.03.08.47.251,1.174-.421,1.555a3.387,3.387,0,0,1-5.3-3c-.013-1.712-.011-3.426.045-5.136.024-.735-.053-1.231-.959-1.069-.679.121-.763-.271-.727-.822.031-.466-.09-1.016.667-.88.96.172,1.1-.326,1.044-1.122-.028-.4-.166-.851.132-1.232a3.6,3.6,0,0,1,.1,1.765c.294-.465-.312-1.239.408-1.653-.188.055-.37.083-.508-.1.586-.393,1.267-.183,1.9-.286.388-.063.385.234.395.536.022.68-.442,1.588.131,1.976.486.33,1.352.1,2.049.119.155,0,.308.03.463.046-.679.762-1.526.089-2.18.335.47,0,1.036,0,1.6,0,.315,0,.665-.011.7.414.037.449-.275.566-.661.628-.738.12-1.545-.27-2.222.3l.027-.043a3.188,3.188,0,0,0-.074,2.091" transform="translate(-168.649 -54.071)" fill="#292828"/>
    <path id="Path_467" data-name="Path 467" d="M58.671,73.459a1.128,1.128,0,0,0-.911-.476,5.383,5.383,0,0,1-1.2-.923,1.213,1.213,0,0,0-.7-.473c-.5-.262-1.105-.365-1.406-.93l-.4-.265a2.276,2.276,0,0,1-1.02-.6c-.415-.433-.794-.929-1.5-.865A25.2,25.2,0,0,0,49.2,67.291c-.327-.224-.8-.33-.906-.815.832-1.067,1.186-1.093,1.852-.026a1.633,1.633,0,0,0,1.417.875,2.781,2.781,0,0,1,2.767,1.692,2.043,2.043,0,0,0,.507.636c.207-.7.165-1.523.979-1.908a.4.4,0,0,1,.308.087l1.139.693c.411-.1.486.279.682.485.02.033.032.076.06.1,2.405,1.753,1.686,1.623,4.193-.067.06-.4.465-.306.682-.481l1.562-.987c.159.347.958.23.668.886-.18.409-.093,1.08-.907.946-.348-.057-.515.3-.625.594-.09.241-.231.487-.481.405-1.736-.57-2.257,1.651-3.755,1.626-.125,0-.238.3-.119.38.456.307.549,1.2,1.238,1.029,1.21-.3,1.617.648,2.214,1.272a1.064,1.064,0,0,1,.163,1.387l-3.025-1.9c-.553.019-.855-.352-1.145-.742" transform="translate(-36.984 -50.284)" fill="#f8f9f9"/>
    <path id="Path_468" data-name="Path 468" d="M263.278,82.982c-.064.161.21.535-.272.433a1.435,1.435,0,0,0-1.163-.016c-1.939.395-2.322,1.926-2.507,3.542-.1.886.044,1.8-.078,2.683-.139,1,.284,1.309,1.176,1.263a1.046,1.046,0,0,1,.02,1.271,13.028,13.028,0,0,1-4.458.007,1.022,1.022,0,0,1,0-1.275c.6-.03.937-.182.916-.947-.062-2.23-.011-4.464,0-6.7-.2-.312-.534-.262-.827-.334a.552.552,0,0,1,.078-1.095,9.71,9.71,0,0,1,2.2.006c.919.135.58.937.689,1.489.084.291.232.267.412.077a3.155,3.155,0,0,1,1.876-1.852,4.432,4.432,0,0,1,2.117.011,1.309,1.309,0,0,1-.191,1.441c-.13-.088-.16-.253-.276-.352a1.184,1.184,0,0,0,.286.341" transform="translate(-195.763 -62.349)" fill="#292828"/>
    <path id="Path_469" data-name="Path 469" d="M293.035,81.949c1.2-.572,2.46-.187,3.69-.221.524-.015.286.554.288.85.015,2.489.02,4.979-.018,7.468-.01.658.066,1.05.86.949.908-.115.544.607.613,1.03.093.561-.148.737-.711.719-1.241-.04-2.485-.038-3.727,0-.608.018-.931-.08-.905-.808.022-.636.061-1.076.866-.955a1.988,1.988,0,0,0,.668-.141,47.862,47.862,0,0,0,.132-6.275c.01-.386.241-.852-.189-1.184l-1.082-.036c-.023-.178.041-.292.23-.315-.148-.954-.148-.955.855-.958.464,0,.927,0,1.272,0a15.9,15.9,0,0,1-2.842-.122" transform="translate(-224.404 -62.514)" fill="#292828"/>
    <path id="Path_470" data-name="Path 470" d="M25.944,81.275l1.7,1.162c.5-.083.7.4,1.062.57a6.216,6.216,0,0,1,1.757,1.269c1.5,1.361,3.48,2.055,4.931,3.491-.814.953-1.586.108-2.08-.274a1.487,1.487,0,0,0-1.82-.192c.03,1.025,1.29,2.021-.01,3.166a2.337,2.337,0,0,1-2.649.426c-.1-.706.635-.664.922-1.025.74-.7,1.361-1.281-.1-1.995a12.7,12.7,0,0,1-1.607-1.263,1.485,1.485,0,0,0-1.686.1,8.527,8.527,0,0,1-2.241,1.291.592.592,0,0,1-.433-.216c0-.428-.019-.859.023-1.283.026-.268.119-.572.521-.368.275.14.488.693.852.279s-.288-.62-.356-.97a1.99,1.99,0,0,1,2.108.146c.124.108.4.182.43-.128.023-.269-.074-.618.345-.555.27.041.372.3.424.615a2.711,2.711,0,0,0,.465.8c.291-.24.1-.592.352-.821.366-.337.463-.75-.162-.949-.712-.227-.263-.64-.208-1.055-.121.363-1.037-.464-.712.567.051.163-.214.205-.359.155-.247-.086-.664-.169-.575-.458.141-.461-.287-.761-.24-1.059.13-.811-.454-.73-.83-.693-.649.064-.822-.271-.909-.782a.723.723,0,0,1,.649-.228.552.552,0,0,1,.439.267" transform="translate(-18.138 -62.033)" fill="#f7f8f8"/>
    <path id="Path_471" data-name="Path 471" d="M46.343,175.784l.443-.277c.2-.155.385-.353.681-.254.192.843-.524.949-1.085,1.161.313.426.6.254.887.174.2-.055.493-.243.5.152.005.212.017.608-.435.492-1.21-.311-2.306.338-3.466.4-.59.032-.548,1.01-1.3.735-.329-.119-.711-.006-.537-.59s-.09-.793-.679-.613c-.5.152-.949.279-.742-.584a.712.712,0,0,0-.623-.931c-.521,0-.343.46-.287.8a.349.349,0,0,1-.337.4c-.174.02-.274-.133-.271-.3.014-.725-.307-.952-1.02-.812-.424.083-.6-.264-.632-.659.13-.087-.018.041.1-.065.03-.028-.008-.012-.1.065a1.461,1.461,0,0,1-1.169-2.1l1.385.706a4.387,4.387,0,0,1,1.887,1.16v0c.69.32,1.4.589,2.08.945a5.479,5.479,0,0,0,3.6.346,3.773,3.773,0,0,0,1.12-.347" transform="translate(-27.68 -132.459)" fill="#f7f8f8"/>
    <path id="Path_472" data-name="Path 472" d="M117.262,44.1a.524.524,0,0,1,.288-.463c.3-.322.513-.738.99-.848l-.05-.042.044.048c.11-.48.528-.7.849-.995l.538-.6c.132-.66.708-1.127.786-1.811a4.89,4.89,0,0,0-.1-2.3l.023.02a4.858,4.858,0,0,1-.643-1.6c.014-.174-.019-.361.135-.5,1.513.359,1.241.361,1.251,1.765a16.392,16.392,0,0,0-.063,3.161,2.632,2.632,0,0,1-.732,2.608,1.492,1.492,0,0,0-.324.593,1.607,1.607,0,0,1-2.312.92,1.867,1.867,0,0,0-.679.04" transform="translate(-89.798 -26.809)" fill="#f8f9f9"/>
    <path id="Path_473" data-name="Path 473" d="M5.924,109.97l.5.014c-.087.625-.633.692-1.074.886l-1.309,1a6.878,6.878,0,0,1-1.629,1.6c-1.378,1.438-1.259,3.163-.939,4.926-.965-.129-.346.525-.37.816-.019.236.3.593-.065.687-.4.106-.433-.311-.489-.621a4.249,4.249,0,0,1,.176-2.066c.29-.984,1.088-2.187-.078-3.24-.19-.171.03-.532.289-.438.914.333.828-.586.88-.857.21-1.1.144-1.11,1.121-.713-.028-1.251.371-1.724,1.661-1.677.514.019.857-.348,1.325-.318" transform="translate(-0.374 -84.213)" fill="#f5f7f7"/>
    <path id="Path_474" data-name="Path 474" d="M10.224,63.292h-.7c-.547-.088-.864-.882-1.554-.516-.2.108-1.06-.13-.313.548a.19.19,0,0,1-.123.335c-.42.005-1.056-.02-1.155-.324-.279-.862-.248-1.85-1.312-2.238.547-1.5-1.4-1.918-1.385-3.189-.065-.211.055-.293.233-.334.693.2.557.994.985,1.385.316.48.832.787,1.118,1.294H6.014c.584.364,1.176.714,1.764,1.072.7.44,1.391.908,2.073,1.382.211.147.5.227.374.587" transform="translate(-2.807 -44.089)" fill="#f6f8f9"/>
    <path id="Path_475" data-name="Path 475" d="M300.326,59.065a1.418,1.418,0,0,1,.838,1.9,1.629,1.629,0,0,1-3.119-.04,1.415,1.415,0,0,1,.89-1.873c.464.033.927,0,1.391.016" transform="translate(-228.18 -45.219)" fill="#2a2929"/>
    <path id="Path_476" data-name="Path 476" d="M352.609,73.8c-.493.145-.351-.271-.342-.45.207-4.186.014-8.376.1-12.562.015-.749-.209-1.075-.985-1.007-.577.05-1.162,0-1.743.013-.342.006-.761-.048-.75.478s.443.43.775.451a.784.784,0,0,1,.56.175l-1.641.1,0,0c-.179-1.553-.179-1.573,1.3-1.547a12.961,12.961,0,0,1,2.746.089,23.535,23.535,0,0,1,.059,4.151c0,3.37-.051,6.74-.08,10.11" transform="translate(-266.883 -45.502)" fill="#201f1f"/>
    <path id="Path_477" data-name="Path 477" d="M432.484,124.713c.44-.164,1.165.677,1.352-.383.376.408.929.449,1.389.679a1.754,1.754,0,0,0,1.343.082,8.014,8.014,0,0,1,3.144-.4c-1.486,1.232-3.249,1.025-4.972.911a17.165,17.165,0,0,1-2.272-.45.282.282,0,0,1,.016-.437" transform="translate(-331.107 -95.211)" fill="#282727"/>
    <path id="Path_478" data-name="Path 478" d="M1.209,41.259l-.233.235c-.891.425-.89-.294-.66-.677a1.637,1.637,0,0,0,.1-1.88,4.834,4.834,0,0,1-.283-2c-.01-1.144.9-.784,1.591-.539l-.308.992a8.006,8.006,0,0,0-.052,2.765c.024.382.149.773-.152,1.108" transform="translate(-0.099 -27.676)" fill="#f5f7f8"/>
    <path id="Path_479" data-name="Path 479" d="M7.069,153.2a1.957,1.957,0,0,0,.879.716.587.587,0,0,1,.366.286.422.422,0,0,1-.083.293c-.171.183-.44.246-.582.467-.035.034-.072.067-.108.1-.255-.076-.509-.156-.766-.226-.2-.054-.274-.207-.392-.361-.4-.519,1.294-.336.311-.938-.34-.208-.868.4-1.154-.234.1-.14.067-.152.064-.141a1.49,1.49,0,0,1-.091.185c-.06.144-.209,0-.07.061.039.017.138-.14.1-.106-.517.35-.64.049-.734-.249s-.155-.624.228-.771a.511.511,0,0,0,.39-.491l.152-.06A4.882,4.882,0,0,1,7.069,153.2" transform="translate(-3.625 -116.197)" fill="#f5f7f7"/>
    <path id="Path_480" data-name="Path 480" d="M62.108,2.384a17.862,17.862,0,0,1-3.5-1.478,5.292,5.292,0,0,0-4.023.209c-.286.105-.553.522-.92.137a6.668,6.668,0,0,1,3.7-1.179,15.675,15.675,0,0,1,4.338,1.678.6.6,0,0,1,.4.633" transform="translate(-41.098 -0.056)" fill="#2f785c"/>
    <path id="Path_481" data-name="Path 481" d="M255.508,123.141h4.434c.323-.339-.06-.822.237-1.166.5,1.435.379,1.639-.96,1.64q-1.506,0-3.011,0c-1.321,0-1.45-.228-.936-1.643.3.345-.085.828.236,1.169" transform="translate(-195.271 -93.405)" fill="#201f1f"/>
    <path id="Path_482" data-name="Path 482" d="M387.855,124.471a.336.336,0,0,1,.492-.134,7.894,7.894,0,0,0,5.547.593.678.678,0,0,1,.746.2,6.616,6.616,0,0,1-3.274.458c-.39-.226-.851.015-1.244-.188-.486.141-.88-.192-1.326-.257-.289-.259-.943-.009-.94-.675" transform="translate(-297.016 -95.174)" fill="#282828"/>
    <path id="Path_483" data-name="Path 483" d="M236.959,83.749c-.012-.329.134-.514.474-.518a4.9,4.9,0,0,0,.929-.019c.438-.092,1.225.346,1.235-.37.008-.554-.758-.26-1.179-.31s-.834-.011-1.592-.011c1.161-.459,2.1.056,2.895-.449.935.13.349.836.438,1.26.1.478-.353.393-.643.4-.852.014-1.7.013-2.557.018" transform="translate(-181.359 -62.852)" fill="#262626"/>
    <path id="Path_484" data-name="Path 484" d="M167.783,72.973c.06.094.194.22.169.276a6.261,6.261,0,0,0-.008,4.01.345.345,0,0,1-.146.4,3.887,3.887,0,0,1-.015-4.685" transform="translate(-127.891 -55.882)" fill="#282727"/>
    <path id="Path_485" data-name="Path 485" d="M257.627,84.31a1.04,1.04,0,0,1-.07-.092c-.307-.515.194-1.3-.319-1.625-.619-.4-1.425-.105-2.149-.146-.257-.015-.594-.043-.617.34-.018.309.255.344.49.35.356.009.6.122.59.532a1.366,1.366,0,0,0-.342-.015c-1.282.268-1.507-.383-1.265-1.447,1.15-.32,2.344.081,3.5-.215l.241-.025a4.235,4.235,0,0,1-.055,2.343" transform="translate(-194.404 -62.77)" fill="#222021"/>
    <path id="Path_486" data-name="Path 486" d="M122.551,150.665l1.825-1.933c.066.432.634.7.2,1.321a1.594,1.594,0,0,1-2.027.612" transform="translate(-93.849 -113.898)" fill="#eef3f2"/>
    <path id="Path_487" data-name="Path 487" d="M74.222,2.329C73.248,1.312,71.9.993,70.68.444,70.3.272,69.886.158,69.487.018a4.643,4.643,0,0,1,3.289.989,2.2,2.2,0,0,0,.943.389.744.744,0,0,1,.707.872.226.226,0,0,1-.2.061" transform="translate(-53.213 0)" fill="#ebf3f1"/>
    <path id="Path_488" data-name="Path 488" d="M383.384,123.585l.94.675c-.366,0-.627.276-1.028.309-.57.048-.99-.03-1.217-.5-.261-.544.367-.646.606-.942l.7.461" transform="translate(-292.545 -94.287)" fill="#f5f4f3"/>
    <path id="Path_489" data-name="Path 489" d="M127.754,125.1c-.111-.723-.839-1.029-1.1-1.648a1.313,1.313,0,0,1,1.7.426c.671.72-.737.848-.323,1.432l-.158.059a.211.211,0,0,1-.113-.269" transform="translate(-96.987 -94.417)" fill="#f3f6f6"/>
    <path id="Path_490" data-name="Path 490" d="M377.063,108.47c-.109.688.436,1.219.449,1.877-.922.138-1.449-.133-1.313-1.193.048-.376-.034-.787.454-.24.349-.356.053-.817.2-1.207.46.145.327.456.212.762" transform="translate(-288.074 -82.482)" fill="#f5f4f3"/>
    <path id="Path_491" data-name="Path 491" d="M299.727,89.092a.522.522,0,0,1,.315.563q0,3.2,0,6.406a.548.548,0,0,1-.256.49q-.029-3.729-.057-7.458" transform="translate(-229.528 -68.226)" fill="#232323"/>
    <path id="Path_492" data-name="Path 492" d="M184.346,70.738a3.278,3.278,0,0,1,3.731-.184c.131.121-.15.166-.27.209a10.04,10.04,0,0,0-3.461-.025" transform="translate(-141.171 -53.649)" fill="#242324"/>
    <path id="Path_493" data-name="Path 493" d="M292.663,82.984h3.463c0,.078.006.157.01.235-.648,0-1.3-.026-1.942.01-.345.019-.9-.222-.963.327-.066.569.621.2.856.485-.272.246-.723-.029-.938.337-1.086-.142-.332-.927-.485-1.394" transform="translate(-224.032 -63.548)" fill="#222021"/>
    <path id="Path_494" data-name="Path 494" d="M18.35,163.027l.669.542c-.46.1-.988-.287-1.356.515-.163.357-.723-.341-.95-.759.084-.373.59-.316.687-.677l.06-.08c.471-.188.629.235.889.459" transform="translate(-12.799 -124.458)" fill="#f5f7f7"/>
    <path id="Path_495" data-name="Path 495" d="M6.869,31.34l-.858.827L5.737,30.72c.476.105.955-.254,1.431.01.2.35.052.53-.3.611" transform="translate(-4.393 -23.457)" fill="#f5f7f8"/>
    <path id="Path_496" data-name="Path 496" d="M352.182,59.159a19.443,19.443,0,0,1-2.551,0c-1.186-.146-1.64.3-1.493,1.454-.408-1.572-.354-1.686,1.141-1.634a7.447,7.447,0,0,1,2.9.176" transform="translate(-266.434 -45.125)" fill="#2a2828"/>
    <path id="Path_497" data-name="Path 497" d="M115.369,161.093a1.389,1.389,0,0,1,.685-.533c.062.509.943.074.839.712-.03.181-.279.38-.474.467-.51.229-.488-.341-.726-.53a1.064,1.064,0,0,0-.324-.116" transform="translate(-88.349 -122.955)" fill="#eef3f2"/>
    <path id="Path_498" data-name="Path 498" d="M431.31,117.107q-.008.219-.016.437c-.724-.879-.408-1.965-.241-2.838.1-.535,1.2-.233,1.868-.133-1.647.481-1.647.481-1.612,2.534" transform="translate(-329.933 -87.605)" fill="#131313"/>
    <path id="Path_499" data-name="Path 499" d="M391.225,112.316a1.783,1.783,0,0,1-1.623-2.349,3.986,3.986,0,0,0,1.623,2.349" transform="translate(-298.275 -84.212)" fill="#272626"/>
    <path id="Path_500" data-name="Path 500" d="M2.631,28.791c-.307.119-.3.737-.758.552-.3-.119-.157-.477-.163-.733-.008-.322.153-.514.492-.5C2.649,28.138,2.616,28.483,2.631,28.791Z" transform="translate(-1.288 -21.529)" fill="#f5f7f8"/>
    <path id="Path_501" data-name="Path 501" d="M129.617,136.836c.066-.754.374-1.555-.456-2.125-.084-.057-.2-.291.032-.346.122-.029.278.087.418.137.2.013.445-.17.571.141-.03.742.216,1.533-.385,2.173a1.28,1.28,0,0,0-.179.02" transform="translate(-98.83 -102.891)" fill="#2c8460"/>
    <path id="Path_502" data-name="Path 502" d="M176.138,79.29a.826.826,0,0,1-.724-.919,1.119,1.119,0,0,1,.726-1.039c-.487.652-.1,1.305,0,1.958" transform="translate(-134.33 -59.22)" fill="#212021"/>
    <path id="Path_503" data-name="Path 503" d="M114.813,81.371a4.346,4.346,0,0,0,1.549-1.341c.155.953-.134,1.244-1.549,1.341" transform="translate(-87.923 -61.286)" fill="#f8f9f9"/>
    <path id="Path_504" data-name="Path 504" d="M131.985,134.928a3.047,3.047,0,0,0,.092-2.381c-.228-.189-.189-.4-.054-.621l.033-.031c.789.905.391,1.983.4,2.992,0,.25-.3.069-.472.041" transform="translate(-101.019 -101.004)" fill="#eef3f2"/>
    <path id="Path_505" data-name="Path 505" d="M188.672,64.393a2.519,2.519,0,0,1-2.342.005,4.144,4.144,0,0,1,2.342-.005" transform="translate(-142.69 -49.184)" fill="#202020"/>
    <path id="Path_506" data-name="Path 506" d="M109.7,20.606l-.721-.3c-.24-.2-.7-.142-.713-.6l.09-.115c.914-.273,1.412,0,1.344,1.023" transform="translate(-82.909 -14.92)" fill="#f0f4f3"/>
    <path id="Path_507" data-name="Path 507" d="M121.988,119.162l-1.357-1.2c.66.162,1.913-.352,1.357,1.2" transform="translate(-92.378 -90.338)" fill="#f3f6f6"/>
    <path id="Path_508" data-name="Path 508" d="M124.022,31.228l-.024.518a.142.142,0,0,1-.2-.051c-.335-.668-1.015-1.027-1.442-1.613.89-.106,1.182.659,1.665,1.146" transform="translate(-93.7 -23.029)" fill="#f0f4f3"/>
    <path id="Path_509" data-name="Path 509" d="M98.631,168.151c.231-.972,1.21-.971,1.843-1.42a.2.2,0,0,1,.328.037,10.306,10.306,0,0,1-2.171,1.383" transform="translate(-75.531 -127.629)" fill="#2f7c58"/>
    <path id="Path_510" data-name="Path 510" d="M379.263,102.561l-.212-.762.21-1.807a3.168,3.168,0,0,1,0,2.57" transform="translate(-290.274 -76.572)" fill="#181617"/>
    <path id="Path_511" data-name="Path 511" d="M257.721,81.789c-1.141.472-2.333.094-3.5.215,1.135-.557,2.329-.162,3.5-.215" transform="translate(-194.684 -62.567)" fill="#292828"/>
    <path id="Path_512" data-name="Path 512" d="M269.944,84.31A8.367,8.367,0,0,0,270,81.967c.655.5-.071,1.313.424,1.846-.022.3.015.656-.48.5" transform="translate(-206.721 -62.77)" fill="#8c8a8b"/>
    <path id="Path_513" data-name="Path 513" d="M82.259,180.25c-.219.1-.37.4-.681.254.089-.686.641-.776,1.163-.9a.311.311,0,0,1,.466,0l-.948.649" transform="translate(-62.472 -137.456)" fill="#347a5d"/>
    <path id="Path_514" data-name="Path 514" d="M205.43,120.523a1.6,1.6,0,0,1,1.157-1.377,2.609,2.609,0,0,1-1.157,1.377" transform="translate(-157.317 -91.241)" fill="#222021"/>
    <path id="Path_515" data-name="Path 515" d="M87.008,176.957l-.466,0a1.912,1.912,0,0,1,1.757-.9l-1.291.9" transform="translate(-66.273 -134.811)" fill="#2e7a5b"/>
    <path id="Path_516" data-name="Path 516" d="M105.4,16.84a2.035,2.035,0,0,1-.079-.2l1.014-.45c.213.438-.367.533-.235.87l-.058.056c-.343.205-.516.017-.642-.278" transform="translate(-80.654 -12.4)" fill="#f0f4f3"/>
    <path id="Path_517" data-name="Path 517" d="M430.7,95.99a1.013,1.013,0,0,1,.429,1.416,1.363,1.363,0,0,1-.429-1.416" transform="translate(-329.793 -73.508)" fill="#222"/>
    <path id="Path_518" data-name="Path 518" d="M109.823,163.343l1.063-.539c-.347.467-.47,1.326-1.387.8.013-.206.18-.217.324-.257" transform="translate(-83.853 -124.674)" fill="#eef3f2"/>
    <path id="Path_519" data-name="Path 519" d="M119.234,27.365l-.466-.2c-.314-.024-.5-.17-.5-.509.7-.278,1.136-.205.961.706" transform="translate(-90.572 -20.306)" fill="#f0f4f3"/>
    <path id="Path_520" data-name="Path 520" d="M303.493,58.3a1.11,1.11,0,0,1-1.391-.016,1.122,1.122,0,0,1,1.391.016" transform="translate(-231.347 -44.455)" fill="#181818"/>
    <path id="Path_521" data-name="Path 521" d="M81.683,194.151c-.36.473-.675.245-1.127.25.365-.515.685-.433,1.127-.25" transform="translate(-61.689 -148.572)" fill="#f7f8f8"/>
    <path id="Path_522" data-name="Path 522" d="M2.036,70.978c-.1.459-.264.706-.654.653-.077-.01-.208-.161-.195-.222.1-.469.489-.407.848-.431" transform="translate(-0.909 -54.354)" fill="#f6f8f9"/>
    <path id="Path_523" data-name="Path 523" d="M5.991,113.8a.236.236,0,0,1-.238.3c-.181.017-.4.065-.465-.181-.047-.184.126-.251.26-.31a.292.292,0,0,1,.444.189" transform="translate(-4.044 -86.968)" fill="#f5f7f7"/>
    <path id="Path_524" data-name="Path 524" d="M236.277,91.136a1.883,1.883,0,0,1,.073-2.091q-.037,1.045-.073,2.091" transform="translate(-180.724 -68.19)" fill="#1c1a1b"/>
    <path id="Path_525" data-name="Path 525" d="M10.571,30.938l.3-.611.45-.222c.043.7-.126.89-.749.833" transform="translate(-8.095 -23.054)" fill="#267756"/>
    <path id="Path_526" data-name="Path 526" d="M384.761,85.841c.038.585-.164.811-.86.968a1.778,1.778,0,0,1,.86-.968" transform="translate(-293.988 -65.736)" fill="#201f20"/>
    <path id="Path_527" data-name="Path 527" d="M282.122,81.074l-2.117-.011a2.179,2.179,0,0,1,2.117.011" transform="translate(-214.425 -61.871)" fill="#2a2829"/>
    <path id="Path_528" data-name="Path 528" d="M201.324,80.088a1.731,1.731,0,0,1,1.871.028,4.733,4.733,0,0,1-1.871-.028" transform="translate(-154.172 -61.131)" fill="#141314"/>
    <path id="Path_529" data-name="Path 529" d="M5.086,68.35c.068.085.221.19.235.312.029.242-.179.275-.375.305s-.256-.024-.225-.225.058-.374.365-.392" transform="translate(-3.609 -52.342)" fill="#f6f8f9"/>
    <path id="Path_530" data-name="Path 530" d="M98.56,13.77A3.75,3.75,0,0,1,97.382,13c.623-.1,1.067.079,1.178.768" transform="translate(-74.574 -9.937)" fill="#f0f4f3"/>
    <path id="Path_531" data-name="Path 531" d="M119.721,112.677l-.234-.7a.623.623,0,0,1,.61.7c-.007.2-.244.016-.377,0" transform="translate(-91.502 -85.75)" fill="#f3f6f6"/>
    <path id="Path_532" data-name="Path 532" d="M116.928,110.5c-.286-.036-.62.069-.793-.37.41-.15.7-.143.793.37" transform="translate(-88.935 -84.275)" fill="#f3f6f6"/>
    <path id="Path_533" data-name="Path 533" d="M2.187,117.707c.17-.057.216.072.208.18a1.984,1.984,0,0,1-.114.408c-.084-.067-.206-.117-.245-.2a.3.3,0,0,1,.151-.383" transform="translate(-1.539 -90.128)" fill="#f5f7f7"/>
    <path id="Path_534" data-name="Path 534" d="M356.015,120.322c.018-.228.07-.61.286-.517.349.152.176.489-.022.736l-.263-.219" transform="translate(-272.633 -91.735)" fill="#555354"/>
    <path id="Path_535" data-name="Path 535" d="M37.319,13c0,.487-.359.421-.664.444.03-.435.342-.447.664-.444" transform="translate(-28.07 -9.953)" fill="#e6ecea"/>
    <path id="Path_536" data-name="Path 536" d="M467.9,115.32c-.309-.351-.216-.74-.073-1.414l.154,1.042-.081.372" transform="translate(-358.152 -87.228)" fill="#201f1f"/>
    <path id="Path_537" data-name="Path 537" d="M117.579,27.083l.5.509c-.5.189-.707-.028-.707-.522a1.127,1.127,0,0,0,.212.013" transform="translate(-89.879 -20.73)" fill="#216d4e"/>
    <path id="Path_538" data-name="Path 538" d="M201.989,109.066c.487.3.3.738.241,1.148,0,.012-.063.028-.093.022a.324.324,0,0,1-.094-.054q-.027-.558-.055-1.116" transform="translate(-154.681 -83.522)" fill="#191819"/>
    <path id="Path_539" data-name="Path 539" d="M276.365,121.882c-.172.37.308.872-.237,1.166q0-.6,0-1.2l.237.031" transform="translate(-211.456 -93.312)" fill="#1a191a"/>
    <path id="Path_540" data-name="Path 540" d="M256.375,123.061c-.459-.312-.126-.786-.236-1.169l.236-.024v1.193" transform="translate(-196.137 -93.325)" fill="#171616"/>
    <path id="Path_541" data-name="Path 541" d="M118.089,115.526l-.689-.543.722-.009-.033.552" transform="translate(-89.904 -88.046)" fill="#f3f6f6"/>
    <path id="Path_542" data-name="Path 542" d="M282.145,89.112a.819.819,0,0,1,1.163.016l-1.163-.016" transform="translate(-216.064 -68.062)" fill="#2a2829"/>
    <path id="Path_543" data-name="Path 543" d="M236.5,114.614l-.132.3c-.046-.072-.126-.142-.13-.216-.014-.259-.047-.533.219-.709q.022.315.044.63" transform="translate(-180.901 -87.288)" fill="#1b191a"/>
    <path id="Path_544" data-name="Path 544" d="M397.531,128.962c.421.024.875-.176,1.244.188a1.846,1.846,0,0,1-1.244-.188" transform="translate(-304.426 -98.732)" fill="#292828"/>
    <path id="Path_545" data-name="Path 545" d="M107.525,165.018l-.324.257c-.214-.087-.231.175-.375.212l-.328-.037c.209-.462.595-.5,1.027-.432" transform="translate(-81.555 -126.349)" fill="#267553"/>
    <path id="Path_546" data-name="Path 546" d="M0,65.582V64.5c.232.319.2.558,0,1.079" transform="translate(0 -49.396)" fill="#f6f8f9"/>
    <path id="Path_547" data-name="Path 547" d="M5.712,148.318a.489.489,0,0,1,.181.022c.278.19.523.395.34.786l-.063.052a.794.794,0,0,1-.458-.859" transform="translate(-4.372 -113.58)" fill="#f5f7f7"/>
    <path id="Path_548" data-name="Path 548" d="M85.924,37.882c.187-.534-.074-1.151.348-1.652.209-.248.1-.753.538-.823.512-.082.428.557.742.769.579-1.639.415-2.291-1.065-3.08,1.1,1.051.523,1.441-.256,1.781.087-.8.133-1.594-1.038-1.6-.313,0-.287-.33-.361-.6-.129-.471-.429-.967-1.08-.714a1.056,1.056,0,0,1-1.343-.565c-.211-.633.7-.376.947-.753.569-.338.853.09,1.167.435.7.485,1.417.955,2.108,1.457,1.891,1.373,2.04,1.841,1.358,4.107a.929.929,0,0,1-.758.736l-.367.305c-.173.216-.352.423-.672.374a.519.519,0,0,1-.269-.173" transform="translate(-63.084 -23.37)" fill="#f5f7f8"/>
    <path id="Path_549" data-name="Path 549" d="M80.233,114.551a2.023,2.023,0,0,1-2.781-1.045c-.153-.651-.467-.7-.947-.647a2.633,2.633,0,0,1-1.9-.616c.063-.211.28-.4.113-.646-.182-.267-.393-.109-.612-.043-.275.083-.439.56-.79.3-.4-.3-.182-.723-.062-1.066s-.071-.608-.034-.911c2.4,1.463,4.763,2.987,7.017,4.672" transform="translate(-55.964 -84.144)" fill="#f6f8f8"/>
    <path id="Path_550" data-name="Path 550" d="M96.486,134.321l1.074-.6c-.018-.476-1.068-.325-.6-1,.272-.39.286-1.039.831-1.142.408-.078.245.486.492.751.744-.911-.177-1.677-.138-2.487,1.459,1.03,1.051,2.384.645,3.737a5.285,5.285,0,0,1-2.055,1.092c-.205-.031-.3-.137-.248-.352" transform="translate(-73.877 -99.433)" fill="#f6f8f8"/>
    <path id="Path_551" data-name="Path 551" d="M40.494,150.257l.735-.3h0a1.694,1.694,0,0,0,1.382,1.056,6.4,6.4,0,0,1,2.2,1.61c.324.283.662.517,1.022.336.668-.337.708-.39,1.357-.058-.77.067-1.064.411-.847,1.069-1.117-.352-1.938-1.239-3.012-1.67-.264-.107-.578-.142-.69-.472a1.182,1.182,0,0,0-1.093-.5,3.276,3.276,0,0,0-.811-.564c-.1-.162-.293-.277-.247-.509" transform="translate(-31.005 -114.837)" fill="#f3f5f5"/>
    <path id="Path_552" data-name="Path 552" d="M70,21.574c-.476.33-1.083-.021-1.617.378-.252.189-1.142,0-1.093-.654.114-1.521-.992-1.6-1.975-1.867.855-.96,1.482-.106,2.168.274.555.379.93,1.015,1.649,1.16.308.214.936.033.868.709" transform="translate(-50.014 -14.543)" fill="#f5f7f8"/>
    <path id="Path_553" data-name="Path 553" d="M43.793,26.436a1.509,1.509,0,0,0-1.232.347c-.207-.343.241-.632-.113-.93-.581.483-1.04,1.234-1.969,1.012.312-.489,1.046-.5,1.252-1.106a1.678,1.678,0,0,1,1.126-.525l2.318-1.421a2.494,2.494,0,0,1-.355,1.526c-.179.236-.319.449-.633.189-.246-.2-.465-.6-.837-.161s.582.328.328.752c-.036.061.072.209.114.316Z" transform="translate(-30.998 -18.237)" fill="#f2f5f4"/>
    <path id="Path_554" data-name="Path 554" d="M3.948,45.333c-.2-1.3-.512-2.616.2-3.873q.484,2.637.967,5.275a.15.15,0,0,1-.255.016c-.528-.329-.567-.975-.916-1.419" transform="translate(-2.839 -31.75)" fill="#2b835f"/>
    <path id="Path_555" data-name="Path 555" d="M28.879,41.726c.262.731-.449,1.147-.652,1.711-.377,1.047.2,1.332.813,1.747.579.393,1.4.59,1.271,1.558-.582-.441-1.2-.839-1.74-1.329-1.562-1.428-1.467-2.4.308-3.687" transform="translate(-21.035 -31.953)" fill="#f2f5f4"/>
    <path id="Path_556" data-name="Path 556" d="M75.846,154.616l-.558-.531c1.534-.686,2.718-2.074,4.532-2.047l-1.172.929a.728.728,0,0,1-.742.423l-2.06,1.227" transform="translate(-57.655 -116.429)" fill="#f3f5f5"/>
    <path id="Path_557" data-name="Path 557" d="M56.478,182.317c-2.236.787-4.076-.125-5.841-1.363.723.192,1.483.041,2.144.724a2.935,2.935,0,0,0,2.195.449c.5-.022,1-.006,1.5-.007.082.044.108.087.082.131s-.054.065-.082.065" transform="translate(-38.777 -138.573)" fill="#2a825e"/>
    <path id="Path_558" data-name="Path 558" d="M88.807,61.364l.252.018c-.112.7-.775.656-1.214.915l-.441.262c-.157.2-.314.4-.617.311l-.1-.113c.405-.7-.549-.905-.545-1.575.886.463,1.793-.337,2.665.182" transform="translate(-65.967 -46.852)" fill="#f4f6f7"/>
    <path id="Path_559" data-name="Path 559" d="M21.241,105.182c.251-.425.722-.584,1.074-.886a24.768,24.768,0,0,0,2.357-1.434c.663-.5,1.094-.409,1.505.24-1.437-.211-2.352.788-3.372,1.5a2.067,2.067,0,0,1-1.564.578" transform="translate(-16.266 -78.525)" fill="#317c5b"/>
    <path id="Path_560" data-name="Path 560" d="M27.805,133.8c.037.468-.343.884-.129,1.456.287-.093.075-.9.637-.549.3.19.434.415.154.76a.518.518,0,0,0,.191.793c1.084.137-.117.58.133.8-.319-.311-.658-.6-.954-.935a1.51,1.51,0,0,1-.033-2.325" transform="translate(-20.885 -102.464)" fill="#f3f5f5"/>
    <path id="Path_561" data-name="Path 561" d="M41.323,61.86c.467-.062.491-.848,1.094-.68,1.177.327.688,1.013.351,1.664a.7.7,0,0,1-.848-.426l-.6-.558" transform="translate(-31.645 -46.833)" fill="#f2f5f4"/>
    <path id="Path_562" data-name="Path 562" d="M43.873,66.541l.848.426.255.156c.846.587,1.7,1.164,2.533,1.768.256.185.684.239.648.7A36.529,36.529,0,0,1,44.2,67.119a.654.654,0,0,1-.324-.578" transform="translate(-33.597 -50.957)" fill="#35795f"/>
    <path id="Path_563" data-name="Path 563" d="M37.873,119.811c-.788.394-1.164,1.642-2.378,1.153l2.2-1.59c.222-.282.452-.552.863-.519l.238-.01c-.066.555-.583.676-.925.966" transform="translate(-27.182 -91.01)" fill="#f3f5f5"/>
    <path id="Path_564" data-name="Path 564" d="M82.475,27.266l-.868-.709c.464-.294.979,0,1.481-.072.806-.112.457,1,.845,1.456-.433-.026-.681-.551-1.167-.435l-.291-.239" transform="translate(-62.494 -20.234)" fill="#2b835e"/>
    <path id="Path_565" data-name="Path 565" d="M80.295,69.555c-.26-1.472,0-1.7,1.849-1.66l.058.065c.024.539-.48.458-.756.645-.371.238-.874.35-.881.932l-.27.017" transform="translate(-61.424 -51.99)" fill="#f4f6f7"/>
    <path id="Path_566" data-name="Path 566" d="M63.891,18.963c-.744.075-1.355-.9-2.168-.274-.478-.077-.7.4-1.1.505a1.8,1.8,0,0,1,3.265-.231" transform="translate(-46.427 -13.801)" fill="#297c58"/>
    <path id="Path_567" data-name="Path 567" d="M35.082,36.819c.26.709.551,1.407-.748,1.081-.25-.063-.582.172-.9.079a4.127,4.127,0,0,1,1.645-1.16" transform="translate(-25.606 -28.196)" fill="#f2f5f4"/>
    <path id="Path_568" data-name="Path 568" d="M23.022,75.093c-.709-.83-1.777-1.169-2.566-1.891q-.1-.071-.071-.145c.022-.049.045-.074.068-.074,1.178.314,1.954,1.309,3.028,1.8.165.076.1.257-.07.346l-.389-.039" transform="translate(-15.604 -55.89)" fill="#2e775b"/>
    <path id="Path_569" data-name="Path 569" d="M6.835,149.2l-.34-.786a4.89,4.89,0,0,1,1.922,2.245c-.683-.318-1.023-1.008-1.582-1.46" transform="translate(-4.974 -113.654)" fill="#307b5c"/>
    <path id="Path_570" data-name="Path 570" d="M65.492,163.918a2.106,2.106,0,0,0,1.791-.606,1.128,1.128,0,0,1,1.063-.336c-.833.673-1.584,1.6-2.854.942" transform="translate(-50.153 -124.793)" fill="#f3f5f5"/>
    <path id="Path_571" data-name="Path 571" d="M39.525,152.641c.336.134.7.236.706.705-.221-.026-.473-.13-.655-.057-.256.1-.478.525-.747.123-.243-.362.252-.483.378-.734a.226.226,0,0,1,.319-.037" transform="translate(-29.684 -116.853)" fill="#2a825e"/>
    <path id="Path_572" data-name="Path 572" d="M97.343,146.8a11.662,11.662,0,0,1,2.019-1c-.592.571-1.062,1.357-2.076,1.186-.071-.067-.086-.117-.045-.15a.159.159,0,0,1,.1-.036" transform="translate(-74.449 -111.651)" fill="#31765a"/>
    <path id="Path_573" data-name="Path 573" d="M46.261,90.386,44.4,89.2c-.07-.05-.091-.1-.066-.145s.05-.068.074-.068c.767.271,1.581.48,1.858,1.4" transform="translate(-33.939 -68.143)" fill="#327b5e"/>
    <path id="Path_574" data-name="Path 574" d="M131.509,43.872c.646.746.388,1.557.168,2.365-.061.114-.121.119-.178,0q0-1.181.01-2.362" transform="translate(-100.701 -33.597)" fill="#24744f"/>
    <path id="Path_575" data-name="Path 575" d="M35.6,149.166l-.319.037c-.433-.548-1.6-.045-1.645-1.149l.719.21c.284.2.7.171.894.523v.013l.352.367" transform="translate(-25.757 -113.378)" fill="#338160"/>
    <path id="Path_576" data-name="Path 576" d="M93.437,148.473a1.617,1.617,0,0,1-.058.186l-.672.279-.59-.8c.4-.323.712-.043,1.035.078l.285.259" transform="translate(-70.542 -113.326)" fill="#f3f5f5"/>
    <path id="Path_577" data-name="Path 577" d="M93.411,62.238l1.214-.915.689-.218c-.306.931-1.107,1.029-1.9,1.133" transform="translate(-71.533 -46.794)" fill="#2e7b5e"/>
    <path id="Path_578" data-name="Path 578" d="M8.7,119.678a3.959,3.959,0,0,1,1.629-1.6,2.319,2.319,0,0,1-1.629,1.6" transform="translate(-6.659 -90.42)" fill="#277756"/>
    <path id="Path_579" data-name="Path 579" d="M44.468,177.119l-1.887-1.16a1.936,1.936,0,0,1,1.887,1.16" transform="translate(-32.608 -134.742)" fill="#2a7758"/>
    <path id="Path_580" data-name="Path 580" d="M74.606,86.987a4.173,4.173,0,0,1,1.406.93c-.6-.113-1.335-.016-1.406-.93" transform="translate(-57.133 -66.614)" fill="#2f7e5f"/>
    <path id="Path_581" data-name="Path 581" d="M15.334,69.938c0,.073,0,.146,0,.219a4.613,4.613,0,0,1-1.645-1.15,2.5,2.5,0,0,1,1.641.931" transform="translate(-10.486 -52.845)" fill="#337f5f"/>
    <path id="Path_582" data-name="Path 582" d="M105.658,18.955l.642.278.681.664c-.606-.082-1.288-.056-1.324-.942" transform="translate(-80.912 -14.516)" fill="#2d7959"/>
    <path id="Path_583" data-name="Path 583" d="M128.305,37c.066.018.133.035.2.051.146.537.61.966.532,1.578-.316-.511-1.006-.852-.732-1.629" transform="translate(-98.207 -28.335)" fill="#2c7b57"/>
    <path id="Path_584" data-name="Path 584" d="M129.187,53.955c.059,0,.119,0,.178,0a3.33,3.33,0,0,1-.853,1.742c-.185-.741.492-1.147.675-1.746" transform="translate(-98.388 -41.318)" fill="#327d5c"/>
    <path id="Path_585" data-name="Path 585" d="M92.6,98.948a3.346,3.346,0,0,1,1.145.742c-.825.439-.981-.158-1.145-.742" transform="translate(-70.91 -75.774)" fill="#2e795b"/>
    <path id="Path_586" data-name="Path 586" d="M8.65,64l.255-.017c.424.3.887.574.931,1.177A2.729,2.729,0,0,1,8.65,64" transform="translate(-6.624 -48.998)" fill="#2d7a5c"/>
    <path id="Path_587" data-name="Path 587" d="M85.488,67.97l.756-.646.659-.264a1.338,1.338,0,0,1-1.415.909" transform="translate(-65.466 -51.355)" fill="#347f60"/>
    <path id="Path_588" data-name="Path 588" d="M41.534,86.912c0,.071-.007.143-.009.214l-.953-.651c.592-.452.795-.046.962.437" transform="translate(-31.07 -66.071)" fill="#1e7551"/>
    <path id="Path_589" data-name="Path 589" d="M108.979,135.141v1.546l-.111,0v-1.565l.111.017" transform="translate(-83.37 -103.477)" fill="#1f6d4c"/>
    <path id="Path_590" data-name="Path 590" d="M19.686,161.906l-.889-.459-.339-.39c.565.056,1.089.173,1.228.848" transform="translate(-14.135 -123.337)" fill="#367f64"/>
    <path id="Path_591" data-name="Path 591" d="M83.579,92.975c.456.235.975.388,1.2.923a1.3,1.3,0,0,1-1.2-.923" transform="translate(-64.004 -71.199)" fill="#2c785b"/>
    <path id="Path_592" data-name="Path 592" d="M46.948,29.614a2.133,2.133,0,0,1-1.126.525.782.782,0,0,1,1.126-.525" transform="translate(-35.09 -22.615)" fill="#2a7457"/>
    <path id="Path_593" data-name="Path 593" d="M45.757,118.558a1.73,1.73,0,0,1-.863.519c0-.66.352-.719.863-.519" transform="translate(-34.379 -90.713)" fill="#31755a"/>
    <path id="Path_594" data-name="Path 594" d="M30.438,129.518a1.474,1.474,0,0,1-.949,1.018,2.05,2.05,0,0,1,.949-1.018" transform="translate(-22.582 -99.184)" fill="#f3f5f5"/>
    <path id="Path_595" data-name="Path 595" d="M119.481,68.2a1.848,1.848,0,0,1-.99.848c.108-.543.38-.894.99-.848" transform="translate(-90.739 -52.222)" fill="#2a7959"/>
    <path id="Path_596" data-name="Path 596" d="M86.468,156.426,87.21,156c-.108.605-.234.677-.742.423" transform="translate(-66.216 -119.466)" fill="#20714d"/>
    <path id="Path_597" data-name="Path 597" d="M123.535,63.988a1.826,1.826,0,0,1-.849.994c-.04-.608.3-.889.849-.994" transform="translate(-93.949 -49.001)" fill="#2a7959"/>
    <path id="Path_598" data-name="Path 598" d="M68.547,83.28a1.5,1.5,0,0,1,1.02.6c-.5.071-.914-.006-1.02-.6" transform="translate(-52.493 -63.775)" fill="#337d61"/>
    <path id="Path_599" data-name="Path 599" d="M131.1,131.238q.027.31.054.621c-.07.115-.13.271-.277.067.1-.311-.41-.613-.014-.929l.237.241" transform="translate(-100.099 -100.316)" fill="#20704d"/>
    <path id="Path_600" data-name="Path 600" d="M49.669,157.946l.69.472c-.414.112-.762.128-.69-.472" transform="translate(-38.029 -120.954)" fill="#206f4c"/>
    <path id="Path_601" data-name="Path 601" d="M87.273,78l-.682-.485c.558-.3.635.069.682.485" transform="translate(-66.311 -59.277)" fill="#297657"/>
    <path id="Path_602" data-name="Path 602" d="M108.233,78.012l-.682.481c-.186-.749.416-.377.682-.481" transform="translate(-82.334 -59.738)" fill="#317658"/>
    <path id="Path_603" data-name="Path 603" d="M103.106,57.4l.758-.736c.048.556-.218.788-.758.736" transform="translate(-78.958 -43.39)" fill="#257555"/>
    <path id="Path_604" data-name="Path 604" d="M75.574,185.354c0-.065,0-.131,0-.2a1.491,1.491,0,0,1,.963-.223,1.6,1.6,0,0,1-.963.419" transform="translate(-57.873 -141.61)" fill="#308662"/>
    <path id="Path_605" data-name="Path 605" d="M337.595,95.184a2.641,2.641,0,0,1-3.081,1.028,2.914,2.914,0,0,1-1.814-2.747,5.686,5.686,0,0,1,.809-3.676c.614-1.037,3.354-1.5,4.389-.807.339.227.275.527.272.821-.013,1.359-.041,2.717-.064,4.076a1.159,1.159,0,0,1-.512,1.3" transform="translate(-254.745 -67.889)" fill="#fdfdfc"/>
    <path id="Path_606" data-name="Path 606" d="M357.209,95.3V91.149h.109V95.3h-.109" transform="translate(-273.548 -69.801)" fill="#232122"/>
    <path id="Path_607" data-name="Path 607" d="M353.742,112.273l.512-1.3c.331.927.215,1.222-.512,1.3" transform="translate(-270.893 -84.979)" fill="#232122"/>
    <path id="Path_608" data-name="Path 608" d="M392.586,90.936c-.5,0-1.008,0-1.513,0-1.207-.006-1.328-.211-.789-1.327a2.628,2.628,0,0,1,2.8-1.454,2.483,2.483,0,0,1,2.187,1.82c.216.609.156,1.056-.7.972-.653-.064-1.317-.013-1.977-.012" transform="translate(-298.642 -67.495)" fill="#f0eeee"/>
    <path id="Path_609" data-name="Path 609" d="M397.684,105.364h-6.719v-.117h6.694l.026.117" transform="translate(-299.397 -80.597)" fill="#242323"/>
    <path id="Path_610" data-name="Path 610" d="M391.071,101.152h4.753c0,.037,0,.075,0,.112h-4.8l.046-.112" transform="translate(-299.444 -77.461)" fill="#1d1c1d"/>
    <path id="Path_611" data-name="Path 611" d="M228.109,71.846l.793.085c-.922.517-.3,1.392-.789,2.349V71.839l0,.007" transform="translate(-174.684 -55.014)" fill="#1a1919"/>
    <path id="Path_612" data-name="Path 612" d="M262.565,90.171v6.023h-.117v-6l.117-.025" transform="translate(-200.98 -69.052)" fill="#232222"/>
    <path id="Path_613" data-name="Path 613" d="M286.309,84.744c-1.146-.087-.338-.625-.113-1.025l.1,1.036.01-.01" transform="translate(-218.793 -64.111)" fill="#2a2829"/>
    <path id="Path_614" data-name="Path 614" d="M280.42,86.059a1.5,1.5,0,0,1-1.006.222c.174-.86.534-.614,1.006-.222" transform="translate(-213.973 -65.629)" fill="#2a2829"/>
    <path id="Path_615" data-name="Path 615" d="M41.658,180.155l.378-.547c.065.08.2.184.182.236C42.132,180.1,41.9,180.142,41.658,180.155Z" transform="translate(-31.901 -137.542)" fill="#fefefe"/>
    <path id="Path_616" data-name="Path 616" d="M16.875,163.063c.3.76-.547.36-.687.677-.559-1.029.51-.4.687-.677" transform="translate(-12.273 -124.872)" fill="#fefefe"/>
    <path id="Path_617" data-name="Path 617" d="M7.822,155.6c.2.063.368.11.348.3a.482.482,0,0,1-.418.473c-.241.038-.1-.152-.1-.215-.008-.207-.063-.453.174-.556" transform="translate(-5.828 -119.157)" fill="#fefefe"/>
    <path id="Path_618" data-name="Path 618" d="M43.653,148.434c.224-.832.655-.339,1.008-.135.079.046.115.279.076.394-.062.184-.248.147-.375.059a1.193,1.193,0,0,0-.708-.318h0" transform="translate(-33.429 -113.312)" fill="#f3f5f5"/>
    <path id="Path_619" data-name="Path 619" d="M86.925,130.887a1.161,1.161,0,0,1-1.045.6c-.048,0-.142-.216-.111-.278.265-.52.764-.231,1.156-.325" transform="translate(-65.676 -100.232)" fill="#f6f8f8"/>
    <path id="Path_620" data-name="Path 620" d="M76.872,119.957c-.1.459-.264.705-.654.653-.077-.011-.207-.161-.194-.222.1-.468.489-.407.848-.431" transform="translate(-58.218 -91.862)" fill="#f6f8f8"/>
    <path id="Path_621" data-name="Path 621" d="M87.268,125.242c-.245-.043-.366-.152-.357-.311.015-.291.271-.34.49-.37.067-.009.231.177.22.194a5.644,5.644,0,0,1-.353.487" transform="translate(-66.555 -95.387)" fill="#f6f8f8"/>
    <path id="Path_622" data-name="Path 622" d="M35.421,131.586c-.01.244-.122.336-.292.328a.289.289,0,0,1-.289-.292c-.007-.17.094-.317.267-.276.127.03.229.171.314.24" transform="translate(-26.68 -100.579)" fill="#f3f5f5"/>
    <path id="Path_623" data-name="Path 623" d="M37.6,149.259a1.891,1.891,0,0,1-.894-.523c.494-.162.818-.034.894.523" transform="translate(-28.11 -113.852)" fill="#f3f5f5"/>
    <path id="Path_624" data-name="Path 624" d="M86.412,151.422c-.1.036-.205.114-.3.1a.139.139,0,0,1-.076-.246.531.531,0,0,1,.309-.066.922.922,0,0,1,.064.212" transform="translate(-65.849 -115.795)" fill="#f3f5f5"/>
    <path id="Path_625" data-name="Path 625" d="M100.109,133.129c.112.086.24.135.272.219.059.153-.085.209-.193.176-.087-.026-.16-.13-.214-.215-.013-.02.077-.1.135-.18" transform="translate(-76.558 -101.949)" fill="#f6f8f8"/>
    <path id="Path_626" data-name="Path 626" d="M81.1,64.232c-.347.416-.657.284-1.028.235.3-.51.6-.407,1.028-.235" transform="translate(-61.318 -49.08)" fill="#f4f6f7"/>
    <path id="Path_627" data-name="Path 627" d="M54.629,35.008c.281.053.628-.134.869.286-.413.2-.637-.056-.869-.286Z" transform="translate(-41.834 -26.809)" fill="#f2f5f4"/>
  </g>
</svg>
